<?xml version="1.0" standalone="no"?>
<!DOCTYPE svg PUBLIC "-//W3C//DTD SVG 20010904//EN"
 "http://www.w3.org/TR/2001/REC-SVG-20010904/DTD/svg10.dtd">
<svg version="1.0" xmlns="http://www.w3.org/2000/svg"
 width="2000.000000pt" height="309.000000pt" viewBox="0 0 2000.000000 309.000000"
 preserveAspectRatio="xMidYMid meet">

<g transform="translate(0.000000,309.000000) scale(0.100000,-0.100000)"
fill="#000000" stroke="none">
<path d="M10 1545 l0 -1545 2265 0 2265 0 0 1545 0 1545 -2265 0 -2265 0 0
-1545z m2519 999 c282 -72 522 -264 653 -520 92 -180 123 -324 115 -529 -6
-155 -29 -250 -91 -380 -59 -125 -115 -205 -205 -296 -219 -218 -513 -324
-826 -298 -267 23 -538 167 -707 378 -162 201 -237 436 -226 700 7 150 35 256
103 396 214 443 708 671 1184 549z m-1589 -430 c0 -3 -14 -45 -31 -92 -59
-167 -73 -256 -73 -472 -1 -215 14 -314 75 -486 16 -45 29 -85 29 -88 0 -3
-55 -6 -123 -6 l-123 0 -121 253 c-67 138 -129 269 -139 289 l-17 37 138 286
139 285 123 0 c68 0 123 -3 123 -6z m370 1 c0 -3 -15 -36 -34 -73 -88 -175
-121 -334 -113 -540 6 -166 35 -288 101 -429 26 -52 46 -97 46 -99 0 -2 -62
-4 -138 -4 l-139 0 -13 28 c-68 147 -111 357 -111 547 0 193 34 364 103 528
l20 47 139 0 c77 0 139 -2 139 -5z m2230 -82 c72 -198 96 -350 87 -551 -8
-173 -36 -299 -108 -479 l-13 -33 -142 0 -141 0 43 88 c73 147 114 324 114
490 0 162 -53 378 -125 510 l-35 62 144 0 144 0 32 -87z m442 -200 l140 -287
-139 -285 -139 -286 -126 -3 -125 -3 38 113 c56 166 73 274 73 463 -1 189 -18
300 -73 463 l-38 112 124 0 125 0 140 -287z"/>
<path d="M2155 2320 c-236 -35 -453 -184 -569 -392 -112 -202 -128 -463 -40
-678 93 -229 303 -408 546 -465 94 -22 267 -20 364 5 307 79 528 318 581 629
51 298 -85 608 -342 780 -152 102 -358 148 -540 121z m-15 -482 l0 -283 137
283 138 282 168 0 c92 0 166 -3 164 -7 -3 -5 -66 -134 -142 -288 l-137 -280
58 -115 c31 -63 94 -193 140 -287 l83 -173 -168 0 -169 0 -20 48 c-11 26 -72
153 -136 282 l-115 235 0 -282 -1 -283 -170 0 -170 0 0 575 0 575 170 0 170 0
0 -282z"/>
<path d="M8545 2325 c-274 -49 -395 -285 -395 -772 0 -441 83 -673 274 -764
89 -42 151 -52 310 -47 157 5 214 21 303 82 93 64 163 204 195 389 17 97 17
536 0 642 -39 236 -119 367 -265 435 -105 49 -271 63 -422 35z m237 -294 c46
-52 53 -111 53 -496 0 -391 -6 -448 -55 -497 -23 -23 -37 -28 -75 -28 -62 0
-83 13 -106 65 -34 77 -49 470 -29 749 14 191 51 253 145 242 28 -3 48 -14 67
-35z"/>
<path d="M18224 2325 c-235 -42 -372 -240 -351 -504 17 -208 106 -317 342
-416 134 -56 197 -90 229 -121 102 -102 58 -274 -71 -274 -53 0 -96 23 -114
59 -6 14 -15 53 -18 86 l-6 60 -192 3 -193 2 0 -53 c0 -176 67 -305 192 -368
87 -44 165 -59 316 -59 267 0 425 69 501 221 41 83 54 155 49 279 -4 93 -8
114 -38 177 -58 128 -133 185 -377 287 -185 78 -233 125 -233 229 0 51 4 61
33 93 37 40 95 54 137 32 34 -18 70 -92 70 -145 l0 -43 185 0 185 0 0 43 c0
170 -80 316 -205 373 -110 51 -290 67 -441 39z"/>
<path d="M5700 1540 l0 -770 200 0 200 0 0 205 0 205 37 60 c21 33 40 60 43
60 3 0 57 -118 120 -263 l116 -262 227 -3 227 -2 -217 433 -216 434 191 331
c106 182 192 333 192 336 0 3 -95 6 -210 6 l-210 0 -148 -295 -147 -295 -5
292 -5 293 -197 3 -198 2 0 -770z"/>
<path d="M6920 1540 l0 -770 185 0 185 0 0 472 c0 259 2 469 5 466 5 -5 105
-353 230 -800 l39 -138 218 0 218 0 0 770 0 770 -185 0 -185 0 0 -472 c0 -259
-3 -468 -7 -464 -4 4 -64 215 -133 469 l-125 462 -223 3 -222 2 0 -770z"/>
<path d="M9400 1541 l0 -771 200 0 200 0 0 305 0 305 81 0 c144 0 150 -11 161
-295 4 -116 13 -232 20 -260 l13 -50 218 -3 c196 -2 249 3 203 21 -8 3 -23 21
-32 39 -15 27 -19 72 -25 258 -8 259 -19 309 -81 367 -29 27 -105 62 -135 63
-40 0 -25 16 29 30 68 17 146 92 172 165 24 67 32 218 16 297 -25 131 -109
230 -228 270 -64 21 -85 23 -439 26 l-373 3 0 -770z m577 462 c53 -25 76 -84
71 -179 -6 -117 -53 -163 -174 -167 l-69 -2 -3 183 -2 182 71 0 c46 0 84 -6
106 -17z"/>
<path d="M10640 1541 l0 -771 200 0 200 0 0 305 0 305 83 0 c134 0 157 -30
157 -207 0 -137 16 -325 30 -369 l12 -34 214 0 c118 0 214 4 214 8 0 5 -11 19
-24 32 -34 31 -36 48 -45 302 -9 249 -15 275 -78 340 -33 34 -83 57 -148 71
-15 3 -16 5 -5 9 8 3 36 13 61 22 60 22 115 75 148 145 24 52 26 66 26 196 0
125 -2 145 -23 190 -51 111 -103 160 -209 198 -54 20 -84 21 -435 25 l-378 3
0 -770z m575 465 c93 -39 112 -212 34 -301 -23 -26 -43 -36 -84 -45 -30 -6
-69 -10 -87 -8 l-33 3 -3 183 -2 182 70 0 c39 0 86 -6 105 -14z"/>
<path d="M12700 1540 l0 -770 353 0 c281 0 365 3 410 15 176 46 274 161 299
351 30 219 -69 398 -236 429 l-38 8 60 28 c100 49 153 126 171 252 26 182 -42
337 -178 407 -87 44 -146 50 -503 50 l-338 0 0 -770z m564 459 c40 -31 58 -75
58 -140 0 -107 -54 -159 -164 -159 l-58 0 0 160 0 160 69 0 c54 0 74 -4 95
-21z m37 -608 c62 -67 75 -190 25 -263 -37 -55 -68 -70 -150 -76 l-76 -5 0
192 0 191 82 0 81 0 38 -39z"/>
<path d="M13930 1540 l0 -770 200 0 200 0 0 305 0 305 81 0 c145 0 151 -11
160 -300 3 -118 12 -236 19 -262 l12 -48 214 0 c118 0 214 4 214 9 0 5 -7 14
-16 21 -34 29 -39 56 -45 285 -5 189 -9 238 -24 275 -37 92 -91 139 -178 155
-38 7 -51 25 -19 25 33 0 122 51 152 88 42 51 70 131 77 222 14 189 -55 346
-182 409 -88 44 -157 51 -522 51 l-343 0 0 -770z m577 460 c54 -33 68 -64 68
-155 0 -131 -45 -179 -179 -192 l-66 -6 0 187 0 186 73 0 c54 0 80 -5 104 -20z"/>
<path d="M15170 1540 l0 -770 470 0 470 0 0 160 0 160 -270 0 -270 0 0 155 0
155 240 0 240 0 0 155 0 155 -237 2 -238 3 -3 132 -3 133 258 2 258 3 0 160 0
160 -457 3 -458 2 0 -770z"/>
<path d="M16240 1540 l0 -770 185 0 185 0 0 571 c0 529 5 642 25 512 4 -27 40
-226 81 -443 40 -217 84 -450 96 -518 l23 -122 145 2 145 3 105 567 c58 313
108 568 113 568 4 0 7 -256 7 -570 l0 -570 185 0 185 0 0 770 0 770 -287 -2
-287 -3 -57 -320 c-31 -176 -67 -380 -79 -452 -13 -73 -26 -133 -29 -133 -4 0
-43 204 -87 453 l-80 452 -287 3 -287 2 0 -770z"/>
<path d="M19060 1540 l0 -770 465 0 465 0 0 160 0 160 -265 0 -265 0 0 155 0
155 240 0 240 0 0 155 0 155 -237 2 -238 3 -3 133 -3 132 256 0 255 0 0 165 0
165 -455 0 -455 0 0 -770z"/>
<path d="M11850 1390 l0 -160 335 0 335 0 0 160 0 160 -335 0 -335 0 0 -160z"/>
</g>
</svg>
