<svg xmlns="http://www.w3.org/2000/svg" height="800" width="1200" viewBox="-81.37065 -52.53125 705.2123 315.1875"><path d="M468.15 210.125h74.32c-20.6-24.519-52.154-68.715-72.057-100.742 21.839-25.683 42.772-49.549 54.7-61.994h-71.068c-10.126 18.974-25.948 40.645-41.382 59.698-.338.686-.968 1.497-1.554 2.46.231-22.847.974-45.75 2.792-62.158h-55.335c2.938 18.67 3.951 56.31 3.951 81.368 0 28.875-1.587 63.897-4.486 81.368h57.503c-.901-9.456-.935-19.627-1.61-32.528a2296.742 2296.742 0 0121.344-26.258c10.807 17.213 25.131 41.641 32.882 58.786M333.623 47.389H239.76c-33.57 0-58.032 12.715-58.032 46.594 0 40.6 43.262 50.46 78.655 56.478 15.192 2.583 34.144 7.508 42.823 9.85 2.42.653 2.825 1.294 2.825 2.212 0 .68-.405 1.43-3.073 1.553-14.077.636-32.657.158-46.312-.371-22.233-.873-53.033-2.814-71.124-7.706v54.125h85.713c51.181 0 80.389-9.535 80.389-51.243 0-31.757-26.303-46.898-80.316-56.49-16.154-2.864-29.33-5.099-38.06-6.742-2.466-.467-3.265-1.16-3.265-1.942 0-.822.76-1.503 3.264-1.616 23.967-.99 86.35 1.616 100.387 6.76l-.01-51.462zM54.84 122.856c-.4-.58-1.053-1.632-1.56-2.567.395 1.413.823 3.614.958 4.999 0 27.366 1.063 61.673 3.793 84.835H0c2.87-23.494 4.334-58.763 4.334-86.8 0-27.738-.675-56.05-2.707-75.936H70.51c13.34 24.074 30.755 52.712 46.031 74.478.625.839 1.25 1.796 1.627 2.567-.096-.912-.197-1.773-.23-2.493 0-23.534-1.487-53.495-4.031-74.552h57.502c-2.431 22.21-3.259 55.127-3.259 81.38 0 31.565 1.407 59.483 5.449 81.356h-63.486c-12.101-22.605-37.69-62.946-55.273-87.267" fill="#e20031"/><path d="M528.13 2.434h-3.084l.011 9.44-1.762.005-.005-9.445h-3.067V.824l7.897-.006.01 1.616zm7.278 6.51l2.803-8.122 2.702-.006.005 11.05h-1.756V2.887l-.062-.006-3.107 8.989H534.8l-3.13-8.984h-.05v8.984h-1.751L529.858.82h2.707l2.842 8.123zm-354.54 20.652c3.564 0 5.292-1.497 5.292-4.278V4.554c-2.111-2.403-2.978-2.431-5.291-2.431V.614h11.634l17.252 20.72h.096V6.35c0-2.69-1.38-4.227-5.567-4.227V.614h12.867v1.509c-3.895 0-4.874 1.806-4.874 4.227v24.754h-4.03L188.676 7.582h-.096v17.736c0 2.826 1.84 4.278 5.618 4.278v1.508h-13.33v-1.508zm120.588-10.425c0 8.381-5.893 12.45-12.524 12.45-11.268 0-18.028-7.407-18.028-15.788 0-9.09 7.03-15.833 17.178-15.833 3.04 0 5.753 1.126 7.74 2.156.197.095.456.124.608.011.478-.349 1.16-.98 1.812-1.576h1.61l.422 10.374-1.835.264c-1.65-4.368-4.475-9.439-10.177-9.439-6.698 0-8.842 5.41-8.842 13.16 0 4.756.608 7.942 2.285 10.615 1.582 2.522 4.424 4.07 7.25 4.07 6.867 0 10.458-4.762 10.458-10.464h2.043zM45.841 31.102H28.584v-1.508c3.67-.344 4.554-1.07 4.554-3.8v-23.1h-.09l-9.721 28.408h-3.98L9.221 2.604h-.095v22.667c0 3.14 1.53 3.98 5.533 4.323v1.508H1.629v-1.508c3.152-.27 5.077-.99 5.077-4.323v-20.1c0-1.976-.969-3.045-5.077-3.045V.612h14.73l7.581 21.36L31.258.613h14.584v1.514c-4.244 0-4.909 1.109-4.909 3.13v20.538c0 2.927 1.008 3.456 4.909 3.8v1.508zm298.781-1.506c3.563 0 5.291-1.497 5.291-4.278V4.554c-2.11-2.403-2.978-2.431-5.29-2.431V.614h11.634l17.251 20.72h.09V6.35c0-2.69-1.384-4.227-5.56-4.227V.614h12.86v1.509c-3.889 0-4.88 1.806-4.88 4.227v24.754H372L352.429 7.582h-.096v17.736c0 2.826 1.83 4.278 5.612 4.278v1.508h-13.323v-1.508zm65.78 1.506v-1.508c-4.194 0-5.15-.766-5.15-4.182V1.996c5.16 0 7.395.524 10.722 9.586l1.272-.146-.231-10.824H385.41l-.236 10.824 1.272.146c3.31-9.062 5.555-9.586 10.711-9.586v23.416c0 3.416-.94 4.182-5.139 4.182v1.508zm-298.957 0v-1.508c-4.199 0-5.139-.766-5.139-4.182V1.996c5.162 0 7.402.524 10.723 9.586l1.277-.146L118.06.612h-31.6l-.236 10.824 1.272.146c3.321-9.062 5.556-9.586 10.717-9.586v23.416c0 3.416-.94 4.182-5.139 4.182v1.508zm362.878-1.165c3.883 0 8.212-3.124 8.212-14.072 0-10.953-4.329-14.072-8.212-14.072-3.873 0-8.19 3.119-8.19 14.072 0 10.948 4.317 14.072 8.19 14.072m-16.757-14.072c0-10.042 9.096-15.76 16.757-15.76 7.671 0 16.779 5.718 16.779 15.76 0 10.036-9.108 15.76-16.78 15.76-7.66 0-16.756-5.724-16.756-15.76m-297.03 14.072c3.884 0 8.213-3.124 8.213-14.072 0-10.953-4.329-14.072-8.213-14.072-3.872 0-8.2 3.119-8.2 14.072 0 10.948 4.328 14.072 8.2 14.072M143.77 15.865c0-10.042 9.107-15.76 16.767-15.76 7.667 0 16.768 5.718 16.768 15.76 0 10.036-9.101 15.76-16.768 15.76-7.66 0-16.767-5.724-16.767-15.76m180.85 14.072c3.873 0 8.19-3.124 8.19-14.072 0-10.953-4.317-14.072-8.19-14.072-3.878 0-8.212 3.119-8.212 14.072 0 10.948 4.334 14.072 8.213 14.072m-16.774-14.072c0-10.042 9.107-15.76 16.774-15.76 7.666 0 16.762 5.718 16.762 15.76 0 10.036-9.096 15.76-16.762 15.76-7.667 0-16.774-5.724-16.774-15.76M65.943 29.937c3.884 0 8.201-3.124 8.201-14.072 0-10.953-4.317-14.072-8.201-14.072-3.884 0-8.207 3.119-8.207 14.072 0 10.948 4.323 14.072 8.207 14.072M49.175 15.865c0-10.042 9.107-15.76 16.768-15.76 7.666 0 16.768 5.718 16.768 15.76 0 10.036-9.102 15.76-16.768 15.76-7.66 0-16.768-5.724-16.768-15.76m90.139 15.237v-1.508c-3.648 0-4.515-.951-4.515-3.293V5.424c0-2.347.867-3.298 4.515-3.298V.612H122.37v1.514c3.648 0 4.503.951 4.503 3.298v20.877c0 2.342-.855 3.293-4.503 3.293v1.508zm385.485 0h-29.967v-1.508c3.828-.141 5.072-.985 5.072-3.338V5.588c0-2.483-.63-3.462-5.072-3.462V.612h18.699v1.514c-5.066 0-5.702 1.137-5.702 3.462v20.11c0 2.72 1.368 3.665 4.002 3.665 6.405 0 9.878-3.698 11.584-9.636h1.7zM434.087 14.8c6.917 0 8.854-2.01 8.854-6.006 0-3.22-2.173-6.338-5.455-6.338-2.307 0-3.4 1.053-3.4 2.933zm6.366 1.632c4.058.27 6.332 3.315 7.16 6.265 1.204 4.3 2.037 4.88 3.298 4.88.951 0 1.716-1.086 1.716-3.158h1.824c0 4.858-2.713 7.205-6.962 7.205-4.931 0-6.997-1.959-7.408-7.998-.332-4.835-1.435-6.8-5.994-6.8v8.539c0 3.343 1.3 4.233 4.857 4.233V31.1h-17.556v-1.502c4.295 0 4.61-1.554 4.61-4.233v-19.2c0-3.264-1.289-4.04-4.61-4.04V.613h17.286c8.246 0 12.484 3.074 12.484 7.993 0 4.351-4.294 7.334-10.705 7.622zM241.305 29.566c-4.362 0-7.35-2.916-7.35-6.299 0-3.366 2.054-5.223 6.86-7.689l9.603 9.699c-2.341 2.904-5.696 4.289-9.113 4.289m1.137-26.815c2.73 0 4.357 2.02 4.357 3.68 0 2.387-1.874 4.234-5.51 5.956-2.291-2.24-3.552-3.732-3.552-5.955 0-2.077 2.217-3.681 4.705-3.681m17.944 28.351l-6.354-6.22c1.204-2.15 1.79-4.227 2.032-7.491h-2.961c-.05 2.054-.416 3.844-1.148 5.454l-8.68-8.522c4.864-2.589 6.265-4.902 6.265-7.891 0-3.8-3.484-6.282-7.058-6.282-3.664 0-7.543 2.381-7.543 6.282 0 2.673 1.075 4.306 3.856 7.109-5.764 2.865-7.74 6.13-7.74 10.036 0 4.908 4.335 8.645 10.143 8.645 4.486 0 8.905-1.947 11.246-4.908l3.755 3.788z"/></svg>