<?xml version="1.0" encoding="UTF-8"?>
<svg version="1.1" xmlns="http://www.w3.org/2000/svg" width="1920" height="1080">
<path d="M0 0 C633.6 0 1267.2 0 1920 0 C1920 356.4 1920 712.8 1920 1080 C1286.4 1080 652.8 1080 0 1080 C0 723.6 0 367.2 0 0 Z " fill="#FEFEFE" transform="translate(0,0)"/>
<path d="M0 0 C0.75144287 0.00563965 1.50288574 0.0112793 2.27709961 0.01708984 C12.3212817 0.23570042 19.09378885 2.81066215 26.75 9.3125 C27.74 10.09625 28.73 10.88 29.75 11.6875 C30.41 12.22375 31.07 12.76 31.75 13.3125 C32.36875 12.44625 32.9875 11.58 33.625 10.6875 C37.72256758 5.73038519 43.69562968 2.33062344 49.75 0.3125 C62.4118584 -0.86079337 74.15670755 -0.37265766 84.5 7.6875 C91.11246232 13.99074645 96.49039625 24.02891004 96.87025452 33.22320557 C96.86803391 34.35127625 96.86581329 35.47934692 96.86352539 36.64160156 C96.86344986 37.92262756 96.86337433 39.20365356 96.86329651 40.52349854 C96.85819026 41.91670775 96.85297427 43.30991657 96.84765625 44.703125 C96.84579032 46.13230337 96.84436724 47.56148238 96.84336853 48.99066162 C96.83955715 52.74550148 96.82973867 56.50030243 96.81866455 60.25512695 C96.80842075 64.08935012 96.80386455 67.92357959 96.79882812 71.7578125 C96.78811514 79.27605937 96.77105531 86.79427423 96.75 94.3125 C94.43756208 94.33935412 92.1250373 94.35882841 89.8125 94.375 C88.52472656 94.38660156 87.23695313 94.39820313 85.91015625 94.41015625 C82.75 94.3125 82.75 94.3125 81.75 93.3125 C81.64749272 91.45795807 81.61428412 89.59955013 81.6081543 87.7421875 C81.59760262 85.95397583 81.59760262 85.95397583 81.58683777 84.12963867 C81.58267349 82.82873291 81.57850922 81.52782715 81.57421875 80.1875 C81.56379481 78.84284682 81.55237232 77.49820105 81.53999329 76.15356445 C81.48754996 70.4352577 81.43965014 64.71707662 81.42407227 58.99853516 C81.41392322 55.50226221 81.38441519 52.00659246 81.34275246 48.51055908 C81.32461295 46.54276293 81.32707858 44.57481118 81.33000183 42.60693359 C81.21024236 33.76630768 79.99201965 27.3223664 74.375 20.375 C68.0842861 15.43229622 60.41909858 15.41355804 52.75 16.3125 C47.99939254 17.98830484 44.91834773 20.58736401 42.3125 24.875 C40.14940371 29.63381185 39.61905475 33.23036607 39.54467773 38.45800781 C39.52473251 39.69899231 39.50478729 40.93997681 39.48423767 42.21856689 C39.46725607 43.567585 39.45037717 44.91660441 39.43359375 46.265625 C39.41301124 47.64996951 39.39201443 49.03430792 39.37062073 50.41864014 C39.31553393 54.055044 39.26606586 57.69150333 39.21777344 61.32800293 C39.16746036 65.04163525 39.11182558 68.75518744 39.05664062 72.46875 C38.94922293 79.74993392 38.84823394 87.03118533 38.75 94.3125 C33.47 94.3125 28.19 94.3125 22.75 94.3125 C22.74589111 92.45641113 22.74178223 90.60032227 22.73754883 88.68798828 C22.71806873 82.52111039 22.67563021 76.35471579 22.61790943 70.18808174 C22.58377441 66.45310736 22.55855073 62.71853612 22.55444336 58.98339844 C22.55013103 55.37144807 22.5214301 51.76040502 22.47656822 48.14873886 C22.46368589 46.77826113 22.45925234 45.40767429 22.46384621 44.03714371 C22.48562123 35.5598614 21.95706478 28.3047377 16.75 21.3125 C14.45448464 19.46008644 12.49635156 18.50431294 9.75 17.3125 C9.09 16.9825 8.43 16.6525 7.75 16.3125 C0.37405414 15.63491967 -6.56598102 15.12708847 -12.69921875 19.75 C-18.00711274 25.09800402 -19.35409262 31.04786708 -19.43945312 38.3503418 C-19.45617065 39.56807785 -19.47288818 40.7858139 -19.4901123 42.04045105 C-19.50368774 43.35096939 -19.51726318 44.66148773 -19.53125 46.01171875 C-19.54929514 47.37124867 -19.56789847 48.73077128 -19.58703613 50.09028625 C-19.65672941 55.12668106 -19.71638957 60.16318521 -19.77606201 65.19970703 C-19.82692067 69.46329878 -19.88169648 73.72680377 -19.94187927 77.99027443 C-19.96851354 79.99393036 -19.98922717 81.99766212 -20.0098877 84.00138855 C-20.03496399 85.81380791 -20.03496399 85.81380791 -20.06054688 87.6628418 C-20.07307495 88.73221481 -20.08560303 89.80158783 -20.09851074 90.90336609 C-20.25 93.3125 -20.25 93.3125 -21.25 94.3125 C-23.60313555 94.38521741 -25.95833668 94.39620868 -28.3125 94.375 C-30.24802734 94.36146484 -30.24802734 94.36146484 -32.22265625 94.34765625 C-33.22167969 94.33605469 -34.22070312 94.32445312 -35.25 94.3125 C-35.34309675 86.01031725 -35.41396427 77.70835628 -35.45724869 69.40577888 C-35.47803376 65.54962721 -35.50618242 61.69383531 -35.55175781 57.83789062 C-35.59554361 54.10959259 -35.61920521 50.38163839 -35.62950897 46.65310287 C-35.6368422 45.23785879 -35.65116079 43.82263136 -35.67292023 42.40753555 C-35.85453603 30.09536202 -33.52548919 19.77748455 -25.25 10.3125 C-17.30290147 3.43133123 -10.62644886 -0.08310261 0 0 Z " fill="#0B4156" transform="translate(893.25,509.6875)"/>
<path d="M0 0 C8.99509792 5.70286453 14.73588155 12.22371169 17.55078125 22.6171875 C18.98504626 29.50165954 18.8699948 36.61326673 18.55078125 43.6171875 C17.55078125 44.6171875 17.55078125 44.6171875 15.00083923 44.73744202 C13.29874046 44.7341111 13.29874046 44.7341111 11.56225586 44.73071289 C10.28100327 44.73063736 8.99975067 44.73056183 7.67967224 44.73048401 C6.27082277 44.72537659 4.86197369 44.72016059 3.453125 44.71484375 C2.01965891 44.71297952 0.58619218 44.71155564 -0.84727478 44.71055603 C-4.62681832 44.70673122 -8.40632365 44.69690127 -12.18585205 44.68585205 C-16.03991173 44.67563713 -19.89397757 44.67105824 -23.74804688 44.66601562 C-31.31512162 44.65527896 -38.88216484 44.63820299 -46.44921875 44.6171875 C-46.30534434 46.22341088 -46.1567295 47.82921014 -46.00610352 49.43481445 C-45.92385025 50.32908646 -45.84159698 51.22335846 -45.7568512 52.14472961 C-44.81823275 59.6884546 -40.38966207 65.29786888 -34.8046875 70.14453125 C-28.58272389 74.0345483 -22.58853136 75.17095297 -15.32421875 75.1171875 C-14.50179688 75.11654297 -13.679375 75.11589844 -12.83203125 75.11523438 C-5.97314454 74.95015247 -0.41558059 73.37649205 5.86328125 70.7109375 C8.55078125 69.6171875 8.55078125 69.6171875 11.55078125 69.6171875 C11.55078125 74.2371875 11.55078125 78.8571875 11.55078125 83.6171875 C-3.43023675 89.28074308 -21.08213119 91.81287743 -36.44921875 85.6171875 C-46.15171526 81.0150574 -52.87732315 74.23383751 -56.79296875 64.16015625 C-57.78767806 60.99484912 -58.66655248 57.8407113 -59.44921875 54.6171875 C-59.62428955 53.979021 -59.79936035 53.34085449 -59.97973633 52.68334961 C-62.72460851 40.6033427 -60.69108649 26.12311169 -54.82421875 15.3671875 C-43.21198913 -2.55541008 -19.37233354 -9.69986715 0 0 Z " fill="#0A98D1" transform="translate(1206.44921875,514.3828125)"/>
<path d="M0 0 C8.04938415 4.54715567 13.79623486 10.65025834 16.70703125 19.48828125 C18.58569047 26.71590074 21.24768639 37.52806472 17.73828125 44.546875 C-3.38171875 44.546875 -24.50171875 44.546875 -46.26171875 44.546875 C-43.7888879 59.44794519 -43.7888879 59.44794519 -34.65234375 70.00390625 C-28.66640884 73.86737731 -22.7502436 75.10273085 -15.69921875 75.046875 C-14.92634521 75.04623047 -14.15347168 75.04558594 -13.35717773 75.04492188 C-6.43613538 74.86918536 -0.61918065 73.1322971 5.796875 70.640625 C8.73828125 69.546875 8.73828125 69.546875 11.73828125 69.546875 C11.73828125 74.166875 11.73828125 78.786875 11.73828125 83.546875 C2.34469942 86.82717342 -6.20505339 88.92655944 -16.19921875 88.859375 C-17.51853394 88.85091553 -17.51853394 88.85091553 -18.86450195 88.84228516 C-31.21340898 88.61086487 -39.77439259 84.67117046 -48.94921875 76.421875 C-59.18283972 65.66467342 -60.83451169 52.15431966 -60.5078125 38.0625 C-59.97517006 25.45927894 -56.26102872 14.99343886 -47.01171875 6.234375 C-33.72929855 -4.88683784 -15.83323747 -7.16217603 0 0 Z " fill="#0998D0" transform="translate(1297.26171875,514.453125)"/>
<path d="M0 0 C7.34051746 5.45906444 10.82134473 13.28537894 13 22 C13 28.27 13 34.54 13 41 C-8.45 41 -29.9 41 -52 41 C-50.8114243 51.69718131 -48.49985749 59.91678542 -40 67 C-31.52192968 72.26048942 -22.78732327 73.26509489 -13 72 C-7.84550332 70.76072739 -2.95201493 68.87622926 2 67 C3.32 66.67 4.64 66.34 6 66 C6 70.62 6 75.24 6 80 C-7.00702023 86.35226569 -21.94387748 88.29218918 -35.9375 84.3125 C-41.11182413 82.5157715 -45.62879254 80.29757756 -50 77 C-50.82242188 76.39414062 -51.64484375 75.78828125 -52.4921875 75.1640625 C-55.10736564 72.90735114 -56.77039864 70.77969529 -58.625 67.875 C-59.19476562 67.00617188 -59.76453125 66.13734375 -60.3515625 65.2421875 C-64.67839015 56.73207624 -65.45453678 48.82896823 -65.3125 39.375 C-65.31733398 37.75464844 -65.31733398 37.75464844 -65.32226562 36.1015625 C-65.24244324 24.20077016 -62.63600104 13.5579513 -54.25 4.6875 C-39.04079567 -9.4394014 -17.45074144 -10.85245114 0 0 Z " fill="#0B4156" transform="translate(832,518)"/>
<path d="M0 0 C0.83595703 0.00902344 1.67191406 0.01804687 2.53320312 0.02734375 C4.58475969 0.05079011 6.63616777 0.08665734 8.6875 0.125 C8.6875 4.745 8.6875 9.365 8.6875 14.125 C6.480625 14.186875 4.27375 14.24875 2 14.3125 C-2.30350433 14.433159 -4.63262933 14.66444245 -8.21875 17.09375 C-11.07388918 21.22730971 -11.0900675 24.51978044 -11.125 29.4375 C-11.15013672 30.27345703 -11.17527344 31.10941406 -11.20117188 31.97070312 C-11.2597699 34.02163409 -11.28906493 36.07336593 -11.3125 38.125 C-6.0325 38.125 -0.7525 38.125 4.6875 38.125 C4.6875 42.415 4.6875 46.705 4.6875 51.125 C-0.5925 51.125 -5.8725 51.125 -11.3125 51.125 C-11.3125 77.855 -11.3125 104.585 -11.3125 132.125 C-16.5925 132.125 -21.8725 132.125 -27.3125 132.125 C-27.3125 105.725 -27.3125 79.325 -27.3125 52.125 C-30.6125 52.125 -33.9125 52.125 -37.3125 52.125 C-37.3125 47.505 -37.3125 42.885 -37.3125 38.125 C-34.0125 38.125 -30.7125 38.125 -27.3125 38.125 C-27.34730469 37.08601563 -27.38210938 36.04703125 -27.41796875 34.9765625 C-27.66710398 24.38831525 -27.44107083 14.67928499 -20.3125 6.125 C-13.51733193 0.92019041 -8.3229034 -0.1707936 0 0 Z " fill="#0C99D1" transform="translate(1072.3125,471.875)"/>
<path d="M0 0 C0 5.28 0 10.56 0 16 C-1.60875 16.061875 -3.2175 16.12375 -4.875 16.1875 C-12.95534349 16.95606738 -19.27325052 19.82138 -24.9375 25.6875 C-32.34075947 34.93721948 -32.12061779 47.53981265 -32.31640625 58.84375 C-32.33718735 59.85344849 -32.35796844 60.86314697 -32.37937927 61.90344238 C-32.44432466 65.1022313 -32.50350185 68.30109642 -32.5625 71.5 C-32.60573764 73.67969511 -32.64935353 75.85938276 -32.69335938 78.0390625 C-32.79994902 83.35929859 -32.90136856 88.67961067 -33 94 C-37.95 94 -42.9 94 -48 94 C-48.05008568 88.02670461 -48.08603807 82.05353609 -48.10986328 76.08007812 C-48.11981376 74.05531683 -48.13337897 72.03056949 -48.15087891 70.00585938 C-48.42450369 37.49279639 -48.42450369 37.49279639 -43 25 C-42.65066406 24.16984375 -42.30132813 23.3396875 -41.94140625 22.484375 C-37.1987963 12.09728173 -29.44397619 5.3955183 -18.875 1.1875 C-12.71691977 -0.73892932 -6.37917361 -0.18580117 0 0 Z " fill="#0A99D1" transform="translate(1137,510)"/>
<path d="M0 0 C4.95 0 9.9 0 15 0 C15.02312166 12.23880329 15.04091418 24.47760143 15.05181217 36.71642208 C15.05704139 42.39876512 15.06413973 48.08109327 15.07543945 53.76342773 C15.08626696 59.24229136 15.09227654 64.72114062 15.09487724 70.20001411 C15.09673174 72.29529611 15.10035282 74.39057728 15.10573006 76.4858532 C15.11293868 79.40977584 15.11399102 82.33363833 15.11352539 85.25756836 C15.11712067 86.1329425 15.12071594 87.00831665 15.12442017 87.91021729 C15.11405216 93.88594784 15.11405216 93.88594784 14 95 C9.38 95 4.76 95 0 95 C0 63.65 0 32.3 0 0 Z " fill="#0C4258" transform="translate(1005,509)"/>
<path d="M0 0 C5.43734793 3.79829178 9.16205076 7.45230584 11 14 C11 16.64 11 19.28 11 22 C-5.83 22 -22.66 22 -40 22 C-38.9014869 13.21189517 -36.62889744 8.05869274 -30.125 2.125 C-21.14274892 -3.98293073 -9.73745112 -5.62387483 0 0 Z " fill="#F2F5F7" transform="translate(1200,526)"/>
<path d="M0 0 C5.09229961 3.47452934 8.59813053 6.93457852 10.625 12.8125 C11.14288253 15.83348145 11 18.93495004 11 22 C-5.83 22 -22.66 22 -40 22 C-38.67423969 12.71967783 -36.47702776 7.40377654 -29.12890625 1.4765625 C-20.61080077 -4.4314079 -9.10115777 -5.23780917 0 0 Z " fill="#F2F5F7" transform="translate(1291,526)"/>
<path d="M0 0 C5.95901158 3.74904702 9.5609362 8.94909152 12.02734375 15.4453125 C12.375 17.4375 12.375 17.4375 11.375 22.4375 C-5.455 22.4375 -22.285 22.4375 -39.625 22.4375 C-37.31381732 12.03717793 -34.12366956 6.58547373 -25.625 0.4375 C-18.68868398 -3.06768461 -7.1059613 -3.21493007 0 0 Z " fill="#F4F6F5" transform="translate(819.625,525.5625)"/>
<path d="M0 0 C4.26630636 2.30380543 7.56169055 4.77984903 10 9 C10.31646557 12.03194431 10.23807062 14.96459964 10 18 C9.34 18 8.68 18 8 18 C7.9175 18.598125 7.835 19.19625 7.75 19.8125 C6.71785436 22.82292478 5.83187638 23.5132649 3 25 C-1.0229738 25.91738842 -4.69450188 26.26703371 -8.75 25.4375 C-12.66430542 22.93669376 -15.41557759 20.39874868 -16.5234375 15.8515625 C-16.84749463 11.33019397 -16.13675281 8.58830496 -13.25 5.0625 C-9.3515267 0.8982217 -5.73649726 -0.68837967 0 0 Z " fill="#149DD4" transform="translate(653,497)"/>
<path d="M0 0 C4.26968436 2.30562955 7.47787961 4.82880089 10 9 C10.72642245 13.90335154 9.94606753 17.37787084 7.33203125 21.48828125 C4.28204332 24.9497045 0.33546904 25.80921871 -4.0625 26.4375 C-8.60838733 25.76045295 -11.60489106 23.55048837 -14.6484375 20.16796875 C-17.02799716 16.35104501 -16.62732227 12.34191592 -16 8 C-12.65229851 1.94838577 -6.86353779 -1.00093259 0 0 Z " fill="#149DD3" transform="translate(653,587)"/>
<path d="M0 0 C4.4060076 3.54396263 6.64330595 5.48790933 7.375 11.25 C7.13334605 15.51921977 5.72982001 18.08204578 2.875 21.3125 C-1.48647659 24.22015106 -4.92637617 25.04213142 -10.125 24.3125 C-13.76118109 22.52385222 -16.41760798 20.45047847 -18.5625 17 C-19.4712181 12.65834685 -20.32296489 8.56487201 -18.1796875 4.53515625 C-13.41079083 -1.59842469 -6.98855126 -3.77381768 0 0 Z " fill="#119CD3" transform="translate(656.125,529.6875)"/>
<path d="M0 0 C3.00685978 1.79132072 4.52657334 3.24682123 6.375 6.1875 C7.56283213 11.53274456 7.07203437 16.26256499 4.1875 20.9375 C0.37761394 24.52967829 -2.5182881 25.57388887 -7.90234375 25.453125 C-11.80596834 24.60988393 -14.47015004 21.9811205 -17 19 C-19.03275231 15.49011435 -19.48972544 13.08104537 -19 9 C-14.67994315 0.69219836 -8.98445066 -2.58593045 0 0 Z " fill="#129CD4" transform="translate(686,588)"/>
<path d="M0 0 C2.6244048 2.12861044 3.56367583 4.04971989 4.55078125 7.2578125 C4.68601687 12.17459332 3.73507778 16.414696 0.55078125 20.2578125 C-3.77086762 23.34470455 -7.23636657 23.68299272 -12.33203125 22.90234375 C-16.42920185 21.65505012 -18.40302714 18.75237194 -20.76171875 15.3828125 C-22.01310769 11.51488306 -22.32749646 8.05791888 -20.50390625 4.3203125 C-15.39705205 -3.38814667 -7.88879642 -5.00265139 0 0 Z " fill="#129CD3" transform="translate(719.44921875,530.7421875)"/>
<path d="M0 0 C4.75733745 2.47381547 7.52618453 5.24266255 10 10 C10.81795603 14.18066414 9.86134353 16.65804014 7.8125 20.25 C6.23896685 22.53599399 5.08424653 23.93982391 2.8125 25.5625 C-1.62008255 26.25201284 -5.65751027 26.1979282 -10 25 C-13.89488156 21.82050485 -15.19918665 19.41424524 -16.0625 14.5 C-16.25724276 11.09200174 -15.95561373 9.90590111 -14.4375 6.6875 C-10.20234757 2.01797297 -6.51609045 -1.08601508 0 0 Z " fill="#119BD3" transform="translate(714,497)"/>
<path d="M0 0 C3.29110633 2.10070617 4.8333853 3.75007795 7 7 C7.75382467 11.60183667 7.39969844 15.1698571 5.375 19.375 C1.97464693 23.13328497 -0.9916243 24.70711188 -6 25.4375 C-10.57135456 24.77084413 -13.56249845 22.58502557 -16.63671875 19.1953125 C-19.17804524 15.10297585 -18.96064112 10.61641426 -18 6 C-13.11629052 -0.56248461 -7.66134042 -1.73639376 0 0 Z " fill="#119BD3" transform="translate(625,529)"/>
<path d="M0 0 C8.35912717 4.29778751 8.35912717 4.29778751 9.73828125 7.9609375 C10.8261765 16.43677808 10.8261765 16.43677808 9.05859375 19.78125 C6.4856219 23.07207293 4.04610219 25.03664234 0 26 C-7.65547445 26.53722628 -7.65547445 26.53722628 -11 24 C-14.93481125 19.6279875 -15.63436188 16.0231901 -15.38671875 10.3359375 C-14.63924137 5.82087213 -12.10695527 3.84478165 -8.625 1.1875 C-5.26334004 -0.33325093 -3.66996165 -0.63518567 0 0 Z " fill="#119BD3" transform="translate(683,497)"/>
<path d="M0 0 C3.29110633 2.10070617 4.8333853 3.75007795 7 7 C7.75382467 11.60183667 7.39969844 15.1698571 5.375 19.375 C1.97464693 23.13328497 -0.9916243 24.70711188 -6 25.4375 C-10.64418473 24.76022306 -13.45673981 22.38893417 -16.875 19.3125 C-18.67579479 15.61086626 -18.52042126 12.03326478 -18 8 C-14.72411385 -0.18971538 -7.98126002 -2.32664038 0 0 Z " fill="#119BD3" transform="translate(625,588)"/>
<path d="M0 0 C2.99791704 1.33102541 3.79428364 2.29799746 6 5 C7.41747587 9.80500294 7.4471941 13.70549077 5.8125 18.4375 C3.45827566 21.76588614 1.96570234 23.48231503 -2.046875 24.5390625 C-6.30453809 25.26772296 -8.42612114 25.28693943 -12.375 23.3125 C-17.67447173 18.64391776 -17.67447173 18.64391776 -18.46875 14.6328125 C-18.5230953 10.27160212 -18.5500512 7.00870613 -15.75 3.5 C-10.54988767 -1.22737485 -6.72191413 -1.74444138 0 0 Z " fill="#119BD3" transform="translate(686,529)"/>
<path d="M0 0 C3.98103342 2.06610595 6.59340705 4.0317503 8.1015625 8.2734375 C8.38831338 13.1123586 7.75996027 16.96098179 4.6640625 20.7734375 C1.29346622 24.06182412 -0.1958649 24.42697925 -4.7734375 24.4609375 C-6.06894531 24.48220703 -6.06894531 24.48220703 -7.390625 24.50390625 C-10.09636623 24.25524779 -11.63131609 23.75241799 -13.8984375 22.2734375 C-17.2656867 17.50316779 -18.76801299 14.25176896 -17.8984375 8.2734375 C-14.12409689 1.00433706 -8.32218907 -3.18503532 0 0 Z " fill="#119BD3" transform="translate(715.8984375,468.7265625)"/>
<path d="M0 0 C3.69190585 1.75221313 6.27711374 3.88555035 8.5 7.3125 C9.44918036 12.41434445 8.96946078 16.46223462 6.1875 20.875 C2.9361355 24.03346837 0.16014105 25.30224141 -4.375 25.4375 C-7.78850792 25.36439357 -9.75900079 24.88885072 -12.4375 22.75 C-15.81439385 19.12601636 -16.82874435 17.54130086 -17.375 12.625 C-16.83118059 7.368079 -14.76755969 4.47296641 -10.75 1.125 C-7.07657688 -0.377764 -3.86372477 -0.78298968 0 0 Z " fill="#109BD3" transform="translate(715,558)"/>
<path d="M0 0 C3.80285865 2.0090574 7.09334467 4.08076405 9 8 C9.78356674 12.0682152 9.91609189 15.48998922 7.72265625 19.10546875 C2.92727571 24.79192245 2.92727571 24.79192245 -1.20703125 25.23828125 C-8.27247593 25.43954579 -8.27247593 25.43954579 -12 23.1875 C-15.77184559 19.06204388 -16.38997542 16.66546147 -16.25 11.28515625 C-15.76289391 6.83270215 -14.18043584 4.01180215 -10.8125 1.125 C-7.13782124 -0.3448715 -3.86703174 -0.68999978 0 0 Z " fill="#109BD3" transform="translate(623,558)"/>
<path d="M0 0 C3.8076546 2.01159111 7.04834016 4.09668033 9 8 C9.53984503 13.57839862 9.22031416 17.22505142 6 22 C2.21428435 25.44155969 -1.71526892 25.50549795 -6.625 25.359375 C-10.00982152 24.84719806 -11.71824512 23.4956694 -14 21 C-16.83588164 16.74617755 -16.89112379 12.99180359 -16 8 C-12.1289799 1.38601781 -7.69742409 -1.04639098 0 0 Z " fill="#109BD3" transform="translate(684,468)"/>
<path d="M0 0 C4.58564129 3.19862633 4.58564129 3.19862633 5.9609375 5.94921875 C6.46353916 11.06586839 6.80195822 15.47743249 4.2109375 20.01171875 C0.0372713 23.60570909 -3.35732074 24.45218439 -8.78515625 24.3359375 C-13.28911885 23.56316055 -15.70708091 20.70501267 -18.4140625 17.13671875 C-19.58985985 13.02142802 -20.16453411 8.99390024 -18.05859375 5.16796875 C-13.47189575 -0.59010136 -7.0167648 -3.61591902 0 0 Z " fill="#109BD3" transform="translate(656.0390625,559.05078125)"/>
<path d="M0 0 C4.95 0 9.9 0 15 0 C15 4.62 15 9.24 15 14 C10.05 14 5.1 14 0 14 C0 9.38 0 4.76 0 0 Z " fill="#13475D" transform="translate(1005,482)"/>
<path d="M0 0 C0.5625 1.9375 0.5625 1.9375 1 4 C0 5 0 5 -2.05641174 5.12025452 C-2.96020065 5.11803391 -3.86398956 5.11581329 -4.79516602 5.11352539 C-5.81614883 5.11344986 -6.83713165 5.11337433 -7.88905334 5.11329651 C-8.9994548 5.10813522 -10.10985626 5.10297394 -11.25390625 5.09765625 C-12.38448959 5.0962413 -13.51507294 5.09482635 -14.67991638 5.09336853 C-18.30747065 5.08775019 -21.93496424 5.07519458 -25.5625 5.0625 C-28.01497307 5.05748736 -30.4674471 5.05292405 -32.91992188 5.04882812 C-38.94663545 5.0377748 -44.97331339 5.02101884 -51 5 C-50.67 4.34 -50.34 3.68 -50 3 C-49.14888641 3.00999275 -49.14888641 3.00999275 -48.28057861 3.02018738 C-42.37591212 3.08654896 -36.47135154 3.13180394 -30.56640625 3.16479492 C-28.36258644 3.17988291 -26.15879665 3.20035576 -23.95507812 3.22631836 C-20.78768503 3.26270058 -17.62068889 3.27972632 -14.453125 3.29296875 C-13.46757629 3.30845261 -12.48202759 3.32393646 -11.46661377 3.33988953 C-10.08563507 3.34022942 -10.08563507 3.34022942 -8.67675781 3.34057617 C-7.8684552 3.34723801 -7.06015259 3.35389984 -6.22735596 3.36076355 C-3.47895732 2.91560702 -2.08045233 1.80148106 0 0 Z " fill="#D8DFE0" transform="translate(831,543)"/>
<path d="M0 0 C0.99 0.66 1.98 1.32 3 2 C2.43152344 2.27972656 1.86304688 2.55945313 1.27734375 2.84765625 C-5.91752944 6.5832248 -11.41886087 11.26303069 -16 18 C-16.33 17.01 -16.66 16.02 -17 15 C-13.19724089 9.13324335 -6.72721584 2.24240528 0 0 Z " fill="#E3E6E5" transform="translate(788,513)"/>
<path d="M0 0 C0 3 0 3 -1.609375 5.0078125 C-2.66898438 6.05582031 -2.66898438 6.05582031 -3.75 7.125 C-4.44609375 7.82882812 -5.1421875 8.53265625 -5.859375 9.2578125 C-7.99788242 10.99827657 -9.30910227 11.60000169 -12 12 C-8.90644332 6.58627581 -5.11672973 3.50222763 0 0 Z " fill="#235265" transform="translate(876,514)"/>
<path d="M0 0 C0.66 0.66 1.32 1.32 2 2 C1.24074219 2.48210938 0.48148438 2.96421875 -0.30078125 3.4609375 C-1.29464844 4.09257813 -2.28851562 4.72421875 -3.3125 5.375 C-4.29863281 6.00148438 -5.28476562 6.62796875 -6.30078125 7.2734375 C-8.21287929 8.49651613 -10.1114034 9.7409356 -12 11 C-12 10.01 -12 9.02 -12 8 C-8.282478 4.45950286 -4.70641341 2.12909178 0 0 Z " fill="#E2E5E3" transform="translate(879,510)"/>
<path d="M0 0 C0.99 0.33 1.98 0.66 3 1 C1.66666667 2.33333333 0.33333333 3.66666667 -1 5 C-1.845625 5.86625 -2.69125 6.7325 -3.5625 7.625 C-6 10 -6 10 -9 12 C-9.66 11.01 -10.32 10.02 -11 9 C-10.01 9 -9.02 9 -8 9 C-7.79375 8.443125 -7.5875 7.88625 -7.375 7.3125 C-5.39586833 3.98396038 -3.15974304 2.25695931 0 0 Z " fill="#DFE2DF" transform="translate(933,512)"/>
<path d="M0 0 C2.64 0 5.28 0 8 0 C6.824375 0.7115625 6.824375 0.7115625 5.625 1.4375 C2.0689031 4.90892793 1.68652451 8.2045751 1 13 C0.67 13 0.34 13 0 13 C0 8.71 0 4.42 0 0 Z " fill="#23A0D2" transform="translate(1035,510)"/>
<path d="M0 0 C0.5625 1.9375 0.5625 1.9375 1 4 C0 5 0 5 -3.16015625 5.09765625 C-5.09181641 5.08025391 -5.09181641 5.08025391 -7.0625 5.0625 C-8.35285156 5.05347656 -9.64320313 5.04445313 -10.97265625 5.03515625 C-11.97167969 5.02355469 -12.97070312 5.01195312 -14 5 C-14 4.67 -14 4.34 -14 4 C-13.32453125 3.96261719 -12.6490625 3.92523437 -11.953125 3.88671875 C-11.06109375 3.82097656 -10.1690625 3.75523437 -9.25 3.6875 C-8.36828125 3.62949219 -7.4865625 3.57148437 -6.578125 3.51171875 C-3.67696226 2.9358819 -2.20774393 1.92403852 0 0 Z " fill="#D0D7D6" transform="translate(831,543)"/>
<path d="M0 0 C-4.56667554 2.36790584 -8.91144552 4.12767637 -14 5 C-12.67753846 2.35507692 -11.35464102 2.02166213 -8.6875 0.8125 C-7.90761719 0.44769531 -7.12773438 0.08289063 -6.32421875 -0.29296875 C-3.7433438 -1.07807525 -2.50336038 -0.89937661 0 0 Z " fill="#31A5D3" transform="translate(1123,512)"/>
<path d="M0 0 C0.99 0.33 1.98 0.66 3 1 C2.030625 1.845625 1.06125 2.69125 0.0625 3.5625 C-3.20125576 6.78017921 -3.81523971 9.38099287 -4 14 C-4.33 14 -4.66 14 -5 14 C-5.602537 7.01057082 -5.602537 7.01057082 -3.88671875 4.1328125 C-2.66254412 2.69138998 -1.33721771 1.33721771 0 0 Z " fill="#41A9D6" transform="translate(642,530)"/>
<path d="M0 0 C0 3.77910478 -0.99703962 4.46106101 -3.5 7.1875 C-4.47453125 8.26064453 -4.47453125 8.26064453 -5.46875 9.35546875 C-5.9740625 9.89816406 -6.479375 10.44085938 -7 11 C-7.33 10.34 -7.66 9.68 -8 9 C-5.68462045 5.27885429 -3.71420527 2.38770339 0 0 Z " fill="#35A6D1" transform="translate(1056,475)"/>
<path d="M0 0 C0 3.60573896 -0.81707462 4.41336566 -3 7.1875 C-3.556875 7.90292969 -4.11375 8.61835937 -4.6875 9.35546875 C-5.120625 9.89816406 -5.55375 10.44085937 -6 11 C-6.66 10.67 -7.32 10.34 -8 10 C-5.61820737 6.25718301 -3.25524265 3.02272532 0 0 Z " fill="#2B5466" transform="translate(780,521)"/>
<path d="M0 0 C0.66 0.33 1.32 0.66 2 1 C-0.97 3.64 -3.94 6.28 -7 9 C-7.66 8.67 -8.32 8.34 -9 8 C-6.03 5.36 -3.06 2.72 0 0 Z " fill="#2AA1CE" transform="translate(1164,517)"/>
<path d="M0 0 C0.33 0 0.66 0 1 0 C1.24042276 4.08718695 0.42258812 7.17679443 -1 11 C-1.66 11 -2.32 11 -3 11 C-2.44894091 7.0507432 -1.61064629 3.65079826 0 0 Z " fill="#345C6D" transform="translate(771,532)"/>
<path d="M0 0 C0.33 0.99 0.66 1.98 1 3 C-0.98 4.98 -2.96 6.96 -5 9 C-5.66 8.67 -6.32 8.34 -7 8 C-4.69 5.36 -2.38 2.72 0 0 Z " fill="#2FA4D2" transform="translate(1250,521)"/>
</svg>
